HIERARCHY
ROOT Hips
{
  OFFSET -102.467 93.6631 130.069
  CHANNELS 6 Xposition Yposition Zposition Zrotation Xrotation Yrotation
  JOINT LeftUpLeg
  {
    OFFSET 8.64259 1.95398 -2.38835
    CHANNELS 3 Zrotation Xrotation Yrotation
    JOINT LeftLeg
    {
      OFFSET 43.7702 0 0
      CHANNELS 3 Zrotation Xrotation Yrotation
      JOINT LeftFoot
      {
        OFFSET 40.6238 0 0
        CHANNELS 3 Zrotation Xrotation Yrotation
        JOINT LeftToeBase
        {
          OFFSET 12.7242 0 0
          CHANNELS 3 Zrotation Xrotation Yrotation
          End Site
          {
            OFFSET 0 0 0
          }
        }
      }
    }
  }
  JOINT RightUpLeg
  {
    OFFSET -8.2249 1.95398 -2.59336
    CHANNELS 3 Zrotation Xrotation Yrotation
    JOINT RightLeg
    {
      OFFSET 43.5653 0 0
      CHANNELS 3 Zrotation Xrotation Yrotation
      JOINT RightFoot
      {
        OFFSET 40.6238 0 0
        CHANNELS 3 Zrotation Xrotation Yrotation
        JOINT RightToeBase
        {
          OFFSET 12.7242 0 0
          CHANNELS 3 Zrotation Xrotation Yrotation
          End Site
          {
            OFFSET 0 0 0
          }
        }
      }
    }
  }
  JOINT Spine
  {
    OFFSET 0.165834 0.87714 6.61349
    CHANNELS 3 Zrotation Xrotation Yrotation
    JOINT Spine1
    {
      OFFSET 7.38963 1.71661e-005 0
      CHANNELS 3 Zrotation Xrotation Yrotation
      JOINT Spine2
      {
        OFFSET 11.9445 1.14441e-005 0
        CHANNELS 3 Zrotation Xrotation Yrotation
        JOINT Spine3
        {
          OFFSET 14.7254 4.19617e-005 0
          CHANNELS 3 Zrotation Xrotation Yrotation
          JOINT Spine4
          {
            OFFSET 10.9679 0 0
            CHANNELS 3 Zrotation Xrotation Yrotation
            JOINT RightShoulder
            {
              OFFSET 2.46616 -1.6653 3.69651
              CHANNELS 3 Zrotation Xrotation Yrotation
              JOINT RightArm
              {
                OFFSET 13.0012 0 0
                CHANNELS 3 Zrotation Xrotation Yrotation
                JOINT RightForeArm
                {
                  OFFSET 28.7848 1.52588e-005 0
                  CHANNELS 3 Zrotation Xrotation Yrotation
                  JOINT RightHand
                  {
                    OFFSET 26.5688 1.52588e-005 0
                    CHANNELS 3 Zrotation Xrotation Yrotation
                    End Site
                    {
                      OFFSET 0 0 0
                    }
                  }
                }
              }
            }
            JOINT LeftShoulder
            {
              OFFSET 2.38034 -1.29275 -3.7523
              CHANNELS 3 Zrotation Xrotation Yrotation
              JOINT LeftArm
              {
                OFFSET 16.3182 6.10351e-005 0
                CHANNELS 3 Zrotation Xrotation Yrotation
                JOINT LeftForeArm
                {
                  OFFSET 27.0901 0 0
                  CHANNELS 3 Zrotation Xrotation Yrotation
                  JOINT LeftHand
                  {
                    OFFSET 24.5451 1.52588e-005 0
                    CHANNELS 3 Zrotation Xrotation Yrotation
                    End Site
                    {
                      OFFSET 0 0 0
                    }
                  }
                }
              }
            }
            JOINT Neck
            {
              OFFSET 5.0226 -0.0266342 0
              CHANNELS 3 Zrotation Xrotation Yrotation
              JOINT Head
              {
                OFFSET 6.69363 2.86102e-005 0
                CHANNELS 3 Zrotation Xrotation Yrotation
                End Site
                {
                  OFFSET 0 0 0
                }
              }
            }
          }
        }
      }
    }
  }
}
MOTION
Frames:	18
Frame Time:	0.0416667
11.6534 75.0486 -304.236 -35.7934 45.2775 15.2202 48.1851 -8.59495 -102.326 -100.519 6.65673 8.67015 83.0142 -36.4443 36.6245 79.3144 -0.812522 10.129 30.0311 -11.305 -76.4402 -104.79 46.8932 -7.69939 160.611 -5.91341 75.9765 24.2392 16.65 114.568 1.40737 -12.8538 -88.6483 52.5999 3.30198 0.782127 40.933 3.3332 0.635867 18.3721 2.91418 1.73906 38.3847 2.91418 1.73905 136.591 -71.6402 -40.9152 -177.671 -60.3222 172.919 -37.4922 -42.9933 -76.326 34.2009 14.0209 37.8107 -125.353 -43.3216 24.9389 9.39182 10.8397 99.6388 54.554 42.6245 -83.6299 33.6278 1.91277 1.79014 -59.3509 11.6595 -37.281 -169.798 15.5065 -14.4672 
11.5876 74.8819 -305.388 -36.7511 46.1037 15.4577 49.4467 -8.8857 -101.911 -101.256 6.07964 8.59322 82.9904 -37.685 36.47 80.4935 0.446275 12.4138 31.2402 -11.4367 -75.2576 -104.077 50.617 -9.41417 163.93 -4.17095 77.6748 29.4363 20.3772 110.039 1.48673 -12.935 -88.6712 52.7672 3.40684 0.641406 41.1006 3.43176 0.490664 18.5365 3.05645 1.63651 38.5492 3.05645 1.6365 137.796 -71.8855 -39.6147 -177.509 -58.3714 174.114 -37.3497 -40.8806 -75.4864 34.8133 14.4064 38.1529 -125.146 -43.067 25.0318 9.01128 10.5305 99.48 53.0114 41.5561 -82.6167 31.3913 1.50038 0.8585 -59.2232 11.42 -37.3489 -169.36 15.0742 -14.5904 
11.4389 74.3658 -308.754 -39.42 48.4002 16.3191 52.7065 -9.6497 -100.545 -103.328 4.84063 8.24725 82.5625 -40.8717 35.8297 83.2489 4.2385 18.7922 34.3613 -11.5978 -72.1505 -101.382 58.7262 -14.7708 174.09 -2.65592 80.9518 49.1059 28.9035 91.8742 1.68608 -13.1546 -88.7259 53.2204 3.66977 0.289508 41.5547 3.67894 0.12749 18.9825 3.4129 1.38031 38.9951 3.4129 1.3803 141.414 -72.5635 -35.7385 -177.815 -52.7611 176.963 -37.3679 -34.7441 -73.2637 36.6109 15.5164 39.0223 -124.546 -42.3264 25.3025 7.91572 9.63903 98.9912 49.1273 38.5292 -80.2788 25.4972 0.648102 -1.41332 -58.8877 10.679 -37.5301 -168.126 13.7767 -14.9018 
11.3026 73.4554 -314.214 -43.3814 51.737 18.1332 56.7865 -10.6574 -97.8323 -106.398 4.12068 7.35296 80.7181 -44.6212 34.0629 85.7231 10.3454 28.2186 38.2211 -11.1974 -68.1748 -96.8273 65.4788 -23.0966 -168.578 -8.57108 83.2497 86.429 25.7444 53.9093 2.27795 -16.2379 -88.4332 59.4236 4.52719 0.0257164 47.762 4.52392 -0.174033 25.1587 4.30948 1.38799 45.1714 4.30946 1.38797 147.611 -73.5433 -29.1813 -179.953 -44.0282 -179.587 -38.4467 -24.9835 -69.9053 39.5425 17.264 40.075 -123.581 -41.1259 25.7382 6.18706 8.22947 98.1199 44.2387 33.9777 -77.9076 17.7727 0.0129356 -3.81036 -58.4843 9.31074 -37.7745 -166.255 11.5211 -15.2348 
11.2236 72.1483 -321.638 -48.2909 55.6068 21.1768 60.3753 -11.7886 -93.0612 -110.193 5.15902 5.66871 76.2054 -46.8488 30.1349 85.959 17.7936 39.7227 41.5307 -9.68527 -64.5094 -92.5274 68.9965 -31.6369 -145.459 -25.0947 89.2755 111.708 -1.63816 21.2411 -1.84063 25.9726 -90.5214 -25.1406 -3.45021 -2.36227 -36.8089 -3.5508 -2.20807 -59.3497 -2.58111 -3.28979 -39.3371 -2.58111 -3.2898 156.724 -74.6323 -19.6846 175.187 -33.1189 -175.902 -41.4746 -12.5369 -65.2625 43.4693 19.5106 40.977 -122.272 -39.4718 26.324 3.91768 6.37898 96.7816 39.2877 28.49 -76.403 10.0641 -0.173092 -5.12764 -58.3019 6.99439 -38.0135 -163.922 8.01474 -15.2721 
11.1846 70.543 -330.821 -54.1825 59.6443 25.7133 62.6352 -12.5469 -85.8798 -113.79 7.96721 3.43938 67.9048 -45.7649 23.2668 82.6107 25.1197 53.1653 43.4385 -6.97682 -61.8714 -66.7676 76.2009 -60.5047 -122.365 -43.228 96.9814 118.728 -31.1264 0.387572 -1.89999 25.638 -90.5073 -24.4738 -3.5735 -2.34817 -36.1417 -3.67334 -2.18855 -58.6848 -2.70292 -3.31345 -38.6722 -2.70292 -3.31345 169.069 -75.5665 -7.01723 167.213 -21.4647 -171.837 -47.1923 1.13775 -58.9176 48.0396 22.0495 41.5833 -120.637 -37.3581 27.0434 1.20314 4.18306 94.8757 34.6633 22.6496 -76.0689 3.50416 -0.114578 -4.78636 -58.9292 3.04026 -38.1768 -161.229 2.57772 -14.4173 
11.075 68.7602 -341.428 -61.9087 62.8979 31.1431 63.9975 -11.3105 -77.0299 -116.683 10.7476 1.06903 56.8817 -40.8093 14.061 75.1889 30.5543 68.434 41.8935 -2.85542 -59.7123 7.61032 73.5276 -135.123 -117.701 -62.9399 92.2606 117.934 -53.9795 -17.417 -2.13599 25.3745 -90.4758 -23.9547 -4.01706 -2.42488 -35.6201 -4.11991 -2.24556 -58.1804 -3.10247 -3.52015 -38.1678 -3.10247 -3.52015 -175.536 -76.0282 8.55216 156.138 -10.8778 -167.251 -56.1195 14.1977 -50.2755 52.6745 24.6406 41.9972 -118.699 -34.7789 27.8768 -1.85183 1.67168 92.3742 30.4449 16.9647 -76.8234 -1.44385 -0.0798929 -2.85939 -61.8022 -4.23893 -38.3002 -157.888 -6.49784 -11.2332 
12.6263 66.5767 -353.657 -80.1895 73.1789 67.0728 53.2165 -30.8591 -77.3902 -115.874 5.29592 5.12912 42.8524 -36.5393 3.5725 66.4726 32.4133 81.8183 67.1543 -3.86948 -65.1348 11.0666 34.3831 -141.186 93.2893 -83.1523 -51.0555 111.156 -73.3246 -39.0705 1.41028 24.5068 -91.985 -22.148 2.27886 -2.98637 -33.8239 2.14546 -3.08365 -56.3327 3.0699 -2.16435 -36.32 3.06991 -2.16433 -158.31 -75.73 25.7279 142.577 -3.05131 -162.511 -68.0358 24.3719 -39.4644 56.7777 27.0936 42.4599 -116.492 -31.7487 28.7999 -5.12297 -0.764729 89.0243 26.5954 11.8409 -78.3971 -4.70307 -0.184995 0.212229 -71.3613 -19.2908 -39.7419 -151.452 -23.4699 -0.775712 
13.168 64.4383 -365.427 -85.1448 76.4522 74.3826 46.916 -27.4506 -77.642 -116.387 -0.258298 3.1098 38.757 -30.2335 -5.00509 62.2319 32.419 87.7845 51.6751 -3.40457 -69.956 12.8253 44.9666 -143.701 65.457 -51.1922 -62.9977 9.84135 -86.0382 -155.477 2.00554 24.5722 -92.8398 -22.2605 3.23712 -4.26474 -33.9348 3.04648 -4.40285 -56.469 4.36856 -3.09548 -36.4564 4.36856 -3.09548 -141.267 -74.5353 42.442 127.795 1.3168 -158.59 -81.75 30.7192 -27.7844 60.0478 29.3226 43.1268 -114.074 -28.3244 29.7849 -8.46286 -3.4094 85.1589 23.0542 7.54791 -80.4688 -6.39544 -0.382148 3.91875 -94.5972 -41.223 -50.6886 -130.906 -45.4099 27.6973 
13.6648 62.5389 -377.228 -82.3333 80.6356 71.3412 39.599 -17.818 -76.624 -115.685 -11.136 1.90576 39.1992 -24.7306 -15.6454 64.5649 32.9139 85.3296 37.394 1.74169 -71.8927 16.2982 52.4335 -149.478 60.2464 -21.0346 -46.68 4.40186 -26.5764 175.53 2.15553 24.7246 -93.7734 -22.5619 3.35692 -5.98583 -34.2429 3.09072 -6.12716 -56.7382 4.99885 -4.70378 -36.7255 4.99888 -4.70379 -126.091 -72.507 56.9962 113.157 2.80884 -156.48 -95.3887 33.5125 -16.9776 62.5051 31.3086 43.9874 -111.519 -24.6047 30.8091 -11.7289 -5.89843 80.6658 19.7812 4.21273 -82.7434 -6.73207 -0.556275 7.84882 -132.221 -52.9443 -78.4376 -92.9427 -50.8364 72.9866 
14.7927 59.8746 -390.693 -74.4051 85.7536 64.3272 30.9799 -9.08219 -76.9347 -114.915 -21.9811 1.65955 40.9477 -23.7006 -26.9759 70.9693 33.1437 77.5058 25.8111 12.1233 -74.5751 18.8962 54.4097 -155.392 50.5861 7.04056 -25.8413 -143.652 9.4294 20.2283 2.60306 24.7552 -94.9562 -22.6188 3.98697 -8.01019 -34.3094 3.63178 -8.17652 -56.7542 6.20546 -6.45064 -36.7416 6.20547 -6.45063 -113.46 -69.8383 68.7425 99.4688 2.75108 -156.556 -107.533 33.7748 -8.17869 64.3176 33.0557 44.9474 -108.898 -20.7087 31.8603 -14.8099 -8.26013 75.7304 16.762 1.83813 -84.9747 -5.97073 -0.598403 11.7066 169.72 -43.4096 -120.831 -58.2448 -28.5862 114.54 
16.2748 57.7583 -406.048 58.3086 88.1928 -67.0572 22.648 -1.50432 -77.5979 -112.931 -31.7366 1.64251 40.2239 -24.2844 -38.115 77.5123 31.9938 68.5216 14.8304 26.4907 -77.2192 21.4863 56.148 -158.196 35.3134 26.0529 -3.89503 -116.556 -32.9473 44.4278 3.20636 24.6812 -96.2545 -22.4624 4.88317 -10.1734 -34.1656 4.43317 -10.3756 -56.5467 7.70542 -8.25406 -36.534 7.70543 -8.25405 -103.323 -66.7578 77.8002 86.8991 2.56804 -158.481 -122.642 20.2261 -0.94195 65.6613 34.572 45.9098 -106.279 -16.7557 32.9369 -17.6487 -10.492 70.4859 13.9957 0.325142 -86.9763 -4.38869 -0.440101 15.2951 -49.2001 -6.71775 -51.1673 -169.07 -20.7678 -22.8241 
17.967 56.363 -422.781 84.3732 82.6819 -91.6449 15.0471 4.73286 -78.499 -110.273 -39.5204 1.56427 37.6552 -24.8631 -47.3153 82.16 29.8582 60.9137 4.27993 40.8264 -78.2099 26.039 57.4899 -159.392 18.4887 34.8361 16.9185 -104.005 -36.9901 52.1207 3.89715 24.5092 -97.5874 -22.1047 5.92971 -12.3707 -33.8234 5.38397 -12.6147 -56.1295 9.35636 -10.0503 -36.1169 9.35637 -10.0503 -95.3738 -63.4812 84.5744 75.289 3.40183 -161.556 118.164 -23.9028 -179.97 66.6538 35.8617 46.8133 -103.713 -12.8517 34.0446 -20.2474 -12.6136 65.0477 11.485 -0.503076 -88.631 -2.24692 -0.0651367 18.5042 -37.3878 -4.95762 -52.071 -142.192 -13.0641 -24.3646 
19.7739 55.629 -440.326 87.7044 76.9307 -93.4491 8.19897 9.85067 -79.5809 -107.504 -45.4189 1.2915 34.4998 -24.8734 -54.1415 84.8945 27.5197 55.1915 -6.06121 53.1546 -77.4809 32.1214 58.6086 -159.883 5.2858 37.1254 32.5378 -94.3092 -38.6444 58.332 10.5788 18.5618 -104.135 -9.56659 16.7313 -24.2338 -21.3706 15.6817 -24.9015 -43.6391 23.1358 -18.2653 -23.6265 23.1359 -18.2653 -55.5874 -42.0648 110.571 -56.6723 -55.0334 29.9202 -47.7549 15.4186 -107.105 56.8754 38.8193 60.4101 -63.4889 44.0151 10.9172 -49.3288 -12.5201 38.1317 11.2018 -0.2548 -86.9831 0.236536 0.500128 21.1279 -26.8609 -18.8864 -103.348 -144.891 -11.1292 -33.727 
21.5949 55.4873 -458.108 88.5647 71.0538 -92.7561 1.92344 14.18 -80.8114 -104.849 -49.7999 0.763829 31.4927 -24.3275 -58.8133 86.3183 25.4217 51.0455 -16.6558 63.4818 -75.3748 39.1133 59.613 -160.108 -2.80932 36.8313 42.3121 -86.5612 -39.472 63.5331 10.4268 18.0591 -104.601 -8.56181 16.2152 -25.383 -20.3946 15.1211 -26.0206 -42.4283 22.9572 -19.5853 -22.4157 22.9572 -19.5853 -51.9309 -39.3332 112.383 -57.1943 -56.5189 39.4743 -30.1078 13.4525 -118.528 57.4601 39.7953 61.1418 -65.5877 41.7227 12.8437 -48.89 -13.3076 34.4987 8.97766 -0.584746 -88.0705 2.85674 1.20783 23.498 -33.0554 -14.3976 -103.866 -140.887 -18.6168 -29.0633 
23.3557 55.8131 -475.601 88.4978 64.9163 -91.0616 -4.0206 18.0689 -82.2083 -102.398 -53.0255 -0.0287674 28.9207 -23.387 -61.7674 86.9677 23.6929 48.0579 -28.3809 72.4577 -71.761 46.5094 60.6469 -160.163 -6.98139 35.9308 47.8747 -79.9913 -39.8854 68.1252 12.354 19.5411 -106.706 -7.98933 16.9232 -31.9161 -20.0561 15.5917 -32.5436 -40.684 25.4769 -25.8939 -20.6714 25.4769 -25.8939 -48.3738 -35.4795 113.56 -63.0622 -52.1217 43.2418 -26.7273 9.88279 -123.453 57.3344 40.5688 62.3791 -63.9936 43.1968 13.5021 -49.9978 -13.8675 29.4928 7.12778 -0.560146 -88.6012 5.48169 2.00326 25.4379 -36.3837 -14.2712 -105.247 -137.186 -23.5507 -26.2202 
25.0113 56.4674 -492.371 88.1168 58.4723 -88.86 -9.74488 21.7068 -83.7995 -100.196 -55.3604 -1.026 26.8231 -22.2198 -63.4417 87.1834 22.3287 45.9067 -44.1053 80.6565 -64.1544 53.9935 61.7974 -159.96 -8.49172 35.0404 50.7019 -74.3054 -40.0055 72.2041 -7.61984 -5.81626 -76.0222 38.3267 -4.09214 32.7088 26.258 -2.72655 32.8352 6.5494 -13.3001 30.4114 26.562 -13.3001 30.4113 -46.4732 -32.0455 113.775 -70.3012 -49.4196 45.0679 -23.9341 6.2563 -127.173 57.2866 41.1798 63.2962 -62.7019 44.4842 14.4272 -51.0551 -14.5107 24.5625 5.50793 -0.367534 -88.7913 7.99182 2.82676 26.9951 -38.6604 -14.31 -106.386 -133.471 -27.5246 -23.7549 
26.5325 57.3301 -508.077 87.9327 51.9953 -86.5547 -15.0682 24.9946 -85.5726 -98.3059 -56.9751 -2.06592 25.1608 -20.9802 -64.2268 87.1577 21.294 44.3849 -101.032 87.5889 -15.244 61.395 63.0601 -159.352 -8.11579 34.2383 51.6054 -69.3678 -39.9071 75.7979 -7.76904 -4.78073 -75.4151 36.2413 -4.38333 33.71 24.1488 -2.98073 33.845 4.60465 -13.8396 31.326 24.6173 -13.8396 31.326 -46.2853 -29.2492 113.188 -78.5666 -48.0889 44.8185 -21.7391 3.01459 -129.82 57.3819 41.6659 63.8756 -61.7413 45.5802 15.6451 -52.1141 -15.1959 19.7217 4.1079 -0.0956432 -88.6746 10.3006 3.62692 28.212 -40.3652 -14.4947 -107.329 -129.75 -30.9185 -21.3753 
